<svg width="244" height="47" xmlns="http://www.w3.org/2000/svg">
 <g>
  <title>Layer 1</title>
  <path id="svg_1" d="m0,0l244,0l0,32.720001c-40.449997,-0.740002 -80.570007,6.559998 -121,6.279999c-41.120003,0.610001 -81.880001,-6.900002 -123,-6.34l0,-32.66z" fill="#8d4d03"/>
  <path id="svg_2" d="m0,32.66c41.119999,-0.560001 81.879997,6.950001 123,6.34c40.429993,0.279999 80.550003,-7.02 121,-6.279999l0,2.41c-7.009995,-0.710003 -14.039993,0.379997 -21.059998,0.219997c-26.690002,1.280003 -53.279999,4.190002 -79.970001,5.610001c-13.649994,0.09 -27.309998,0.010002 -40.970001,0.049999c-34.029999,-1.419998 -67.91,-6.379997 -102,-5.969997l0,-2.380001z" fill="#efdfcd"/>
 </g>
</svg>